<svg width="46" height="6" viewBox="0 0 46 6" fill="none" xmlns="http://www.w3.org/2000/svg">
<path fill-rule="evenodd" clip-rule="evenodd" d="M9.10324 2.81672L9.10331 2.81672C11.8157 2.83354 14.8549 2.85239 17.4 2.66207C19.0165 2.54119 20.4779 2.33353 21.5478 1.96978C22.0819 1.7882 22.5558 1.55557 22.9039 1.24544C22.937 1.21593 22.9691 1.18561 23 1.15448C23.0309 1.18561 23.063 1.21593 23.0961 1.24544C23.4442 1.55557 23.9181 1.7882 24.4522 1.96978C25.5221 2.33353 26.9835 2.54119 28.6 2.66207C31.1451 2.85239 34.1843 2.83354 36.8967 2.81672H36.8967C37.6366 2.81213 38.3522 2.80769 39.0268 2.80769C41.5141 2.80769 42.9265 3.25005 43.6857 3.73794C44.436 4.22011 44.5243 4.72007 44.495 4.93143L45.4856 5.06857C45.5806 4.38249 45.2216 3.5363 44.2263 2.89668C43.2399 2.26277 41.6084 1.80769 39.0268 1.80769C38.3374 1.80769 37.6113 1.81217 36.8644 1.81677C34.1565 1.83345 31.1748 1.85182 28.6746 1.66485C27.0764 1.54535 25.7192 1.34435 24.7741 1.02301C24.3007 0.862045 23.9681 0.683009 23.7614 0.49885C23.5665 0.325159 23.5 0.164629 23.5 0H22.5C22.5 0.164629 22.4335 0.325159 22.2386 0.49885C22.0319 0.683009 21.6993 0.862045 21.2259 1.02301C20.2808 1.34435 18.9236 1.54535 17.3254 1.66485C14.8252 1.85182 11.8435 1.83345 9.13562 1.81677C8.38871 1.81217 7.66263 1.80769 6.97324 1.80769C4.39156 1.80769 2.76009 2.26277 1.77369 2.89668C0.778395 3.5363 0.419449 4.38249 0.514428 5.06857L1.50498 4.93143C1.47572 4.72007 1.56404 4.22011 2.31432 3.73794C3.0735 3.25005 4.48592 2.80769 6.97324 2.80769C7.64781 2.80769 8.36337 2.81213 9.10324 2.81672Z" fill="#98A2B3"/>
</svg>
